<svg width="108" height="63" viewBox="0 0 108 63" fill="none" xmlns="http://www.w3.org/2000/svg">
<g clip-path="url(#clip0_378_4302)">
<path d="M78.4316 44.0332L77.377 37.4121L93.4023 22.9688C94.9258 21.6016 96.1074 20.3906 96.9473 19.3359C97.7871 18.2812 98.373 17.2461 98.7051 16.2305C99.0566 15.1953 99.2324 14.0625 99.2324 12.832C99.2324 10.8203 98.7246 9.27734 97.709 8.20312C96.6934 7.10938 94.9746 6.5625 92.5527 6.5625C90.6973 6.5625 89.2129 6.82617 88.0996 7.35352C86.9863 7.88086 86.1758 8.75977 85.668 9.99023C85.1797 11.2012 84.9355 12.8613 84.9355 14.9707H76C76 9.81445 77.2305 6.03516 79.6914 3.63281C82.1719 1.21094 86.332 0 92.1719 0C95.8828 0 98.8711 0.576172 101.137 1.72852C103.402 2.86133 105.053 4.39453 106.088 6.32812C107.143 8.24219 107.67 10.3906 107.67 12.7734C107.67 14.8828 107.328 16.8066 106.645 18.5449C105.961 20.2637 104.955 21.9141 103.627 23.4961C102.299 25.0781 100.648 26.709 98.6758 28.3887L86.8398 38.5254L86.5176 37.3828H106.938V44.0332H78.4316Z" fill="#FF5959"/>
<path d="M61.5996 44.3848V36.123H42V28.8281L55.1543 1.14258H64.0898L50.9355 30.1172L50.1738 28.916H61.5996V19.1309H68.543V28.916H75.5742V36.123H68.543V44.3848H61.5996Z" fill="#FF5959"/>
<path d="M16.6406 45.1465C13.6914 45.1465 10.7227 44.7949 7.73438 44.0918C4.74609 43.3887 2.16797 42.4316 0 41.2207L2.98828 34.8633C4.64844 35.7422 6.63086 36.543 8.93555 37.2656C11.2598 37.9688 13.7598 38.3203 16.4355 38.3203C18.2129 38.3203 19.5508 38.0664 20.4492 37.5586C21.3672 37.0508 21.9824 36.3477 22.2949 35.4492C22.627 34.5312 22.793 33.4863 22.793 32.3145C22.793 31.5137 22.6562 30.7812 22.3828 30.1172C22.1094 29.4336 21.543 28.8086 20.6836 28.2422C19.8438 27.6562 18.5547 27.1094 16.8164 26.6016L9.43359 24.4336C7.08984 23.7305 5.26367 22.793 3.95508 21.6211C2.66602 20.4297 1.75781 19.043 1.23047 17.4609C0.722656 15.8789 0.46875 14.1699 0.46875 12.334C0.46875 9.63867 1.12305 7.41211 2.43164 5.6543C3.75977 3.89648 5.55664 2.58789 7.82227 1.72852C10.1074 0.849609 12.666 0.410156 15.498 0.410156C18.3496 0.410156 20.9766 0.683594 23.3789 1.23047C25.7812 1.77734 27.9785 2.62695 29.9707 3.7793L27.5098 9.90234C25.9082 9.14062 24.1602 8.50586 22.2656 7.99805C20.3711 7.49023 18.3691 7.23633 16.2598 7.23633C14.0527 7.23633 12.2949 7.57812 10.9863 8.26172C9.67773 8.92578 9.02344 10.1855 9.02344 12.041C9.02344 13.5254 9.4043 14.668 10.166 15.4688C10.9473 16.2695 12.4316 17.002 14.6191 17.666L21.9727 19.8633C24.8828 20.7422 27.0703 22.1387 28.5352 24.0527C30 25.9668 30.7324 28.623 30.7324 32.0215C30.7324 34.4629 30.2441 36.6797 29.2676 38.6719C28.291 40.6445 26.7676 42.2168 24.6973 43.3887C22.627 44.5605 19.9414 45.1465 16.6406 45.1465Z" fill="#6AC8F8"/>
<path d="M68.5 51L68.5 55.5H108V62.5H65C63.067 62.5 61.5 60.933 61.5 59V51H68.5Z" fill="#FF5959"/>
<path d="M18.5 51L18.5 55.5H50V62.5H15C13.067 62.5 11.5 60.933 11.5 59V51H18.5Z" fill="#6AC8F8"/>
</g>
<defs>
<clipPath id="clip0_378_4302">
<rect width="108" height="62.5" fill="white"/>
</clipPath>
</defs>
</svg>
