<svg width="32" height="31" viewBox="0 0 32 31" fill="none" xmlns="http://www.w3.org/2000/svg">
<g clip-path="url(#clip0_470_10317)">
<path d="M31 15.4992H10.9649M3.89297 15.4992H1M3.89297 15.4992C3.89297 14.5451 4.26542 13.6302 4.92839 12.9556C5.59136 12.281 6.49053 11.902 7.42811 11.902C8.36568 11.902 9.26486 12.281 9.92783 12.9556C10.5908 13.6302 10.9632 14.5451 10.9632 15.4992C10.9632 16.4532 10.5908 17.3681 9.92783 18.0427C9.26486 18.7173 8.36568 19.0963 7.42811 19.0963C6.49053 19.0963 5.59136 18.7173 4.92839 18.0427C4.26542 17.3681 3.89297 16.4532 3.89297 15.4992ZM31 26.4012H21.6789M21.6789 26.4012C21.6789 27.3554 21.3056 28.2714 20.6425 28.9462C19.9793 29.6209 19.08 30 18.1422 30C17.2046 30 16.3054 29.6194 15.6424 28.9448C14.9795 28.2702 14.607 27.3552 14.607 26.4012M21.6789 26.4012C21.6789 25.4469 21.3056 24.5326 20.6425 23.8579C19.9793 23.1831 19.08 22.804 18.1422 22.804C17.2046 22.804 16.3054 23.183 15.6424 23.8576C14.9795 24.5322 14.607 25.4472 14.607 26.4012M14.607 26.4012H1M31 4.59715H25.9649M18.893 4.59715H1M18.893 4.59715C18.893 3.64313 19.2654 2.72818 19.9284 2.05358C20.5914 1.37898 21.4905 1 22.4281 1C22.8923 1 23.352 1.09304 23.7809 1.27382C24.2098 1.45459 24.5996 1.71956 24.9278 2.05358C25.2561 2.38761 25.5165 2.78416 25.6941 3.22058C25.8718 3.65701 25.9632 4.12477 25.9632 4.59715C25.9632 5.06954 25.8718 5.5373 25.6941 5.97373C25.5165 6.41015 25.2561 6.8067 24.9278 7.14073C24.5996 7.47475 24.2098 7.73972 23.7809 7.92049C23.352 8.10127 22.8923 8.19431 22.4281 8.19431C21.4905 8.19431 20.5914 7.81532 19.9284 7.14073C19.2654 6.46613 18.893 5.55118 18.893 4.59715Z" stroke="#202020" stroke-width="1.5" stroke-miterlimit="10" stroke-linecap="round"/>
</g>
<defs>
<clipPath id="clip0_470_10317">
<rect width="32" height="31" fill="white"/>
</clipPath>
</defs>
</svg>
