<svg width="30" height="30" viewBox="0 0 30 30" fill="none" xmlns="http://www.w3.org/2000/svg">
<path d="M9.71848 9.7177C9.99977 9.43649 10.3812 9.27852 10.779 9.27852C11.1767 9.27852 11.5582 9.43649 11.8395 9.7177L15.0705 12.9472L18.3 9.7177C18.4383 9.57443 18.6039 9.46016 18.7869 9.38155C18.9699 9.30293 19.1667 9.26155 19.3659 9.25982C19.565 9.25809 19.7626 9.29604 19.9469 9.37147C20.1313 9.44689 20.2987 9.55827 20.4396 9.69911C20.5804 9.83994 20.6918 10.0074 20.7672 10.1918C20.8426 10.3761 20.8806 10.5736 20.8789 10.7728C20.8771 10.972 20.8357 11.1688 20.7571 11.3518C20.6785 11.5348 20.5642 11.7003 20.421 11.8387L17.1915 15.0697L20.421 18.2992C20.6942 18.5821 20.8454 18.961 20.842 19.3543C20.8386 19.7476 20.6808 20.1238 20.4027 20.4019C20.1246 20.68 19.7484 20.8378 19.3551 20.8412C18.9618 20.8446 18.5829 20.6934 18.3 20.4202L15.0705 17.1907L11.8395 20.4202C11.5555 20.6869 11.1789 20.8326 10.7894 20.8266C10.3998 20.8205 10.0279 20.6632 9.75237 20.3878C9.4768 20.1124 9.31918 19.7406 9.31285 19.3511C9.30653 18.9616 9.45199 18.5849 9.71848 18.3007L12.948 15.0712L9.71848 11.8402C9.43727 11.5589 9.2793 11.1774 9.2793 10.7797C9.2793 10.382 9.43727 10.0005 9.71848 9.7192" fill="#FF5959"/>
<path fill-rule="evenodd" clip-rule="evenodd" d="M15 0C6.7155 0 0 6.7155 0 15C0 23.2845 6.7155 30 15 30C23.2845 30 30 23.2845 30 15C30 6.7155 23.2845 0 15 0ZM3 15C3 11.8174 4.26428 8.76516 6.51472 6.51472C8.76516 4.26428 11.8174 3 15 3C18.1826 3 21.2348 4.26428 23.4853 6.51472C25.7357 8.76516 27 11.8174 27 15C27 18.1826 25.7357 21.2348 23.4853 23.4853C21.2348 25.7357 18.1826 27 15 27C11.8174 27 8.76516 25.7357 6.51472 23.4853C4.26428 21.2348 3 18.1826 3 15Z" fill="#FF5959"/>
</svg>
