<svg width="217" height="68" viewBox="0 0 217 68" fill="none" xmlns="http://www.w3.org/2000/svg">
<g clip-path="url(#clip0_378_4292)">
<path d="M187.432 44.0332L186.377 37.4121L202.402 22.9688C203.926 21.6016 205.107 20.3906 205.947 19.3359C206.787 18.2812 207.373 17.2461 207.705 16.2305C208.057 15.1953 208.232 14.0625 208.232 12.832C208.232 10.8203 207.725 9.27734 206.709 8.20312C205.693 7.10938 203.975 6.5625 201.553 6.5625C199.697 6.5625 198.213 6.82617 197.1 7.35352C195.986 7.88086 195.176 8.75977 194.668 9.99023C194.18 11.2012 193.936 12.8613 193.936 14.9707H185C185 9.81445 186.23 6.03516 188.691 3.63281C191.172 1.21094 195.332 0 201.172 0C204.883 0 207.871 0.576172 210.137 1.72852C212.402 2.86133 214.053 4.39453 215.088 6.32812C216.143 8.24219 216.67 10.3906 216.67 12.7734C216.67 14.8828 216.328 16.8066 215.645 18.5449C214.961 20.2637 213.955 21.9141 212.627 23.4961C211.299 25.0781 209.648 26.709 207.676 28.3887L195.84 38.5254L195.518 37.3828H215.938V44.0332H187.432Z" fill="#FF5959"/>
<path d="M170.6 44.3848V36.123H151V28.8281L164.154 1.14258H173.09L159.936 30.1172L159.174 28.916H170.6V19.1309H177.543V28.916H184.574V36.123H177.543V44.3848H170.6Z" fill="#FF5959"/>
<path d="M110 34.541V22.2656C110 19.0625 111.211 16.5918 113.633 14.8535C116.074 13.1152 119.336 12.2461 123.418 12.2461C128.262 12.2461 131.699 13.1738 133.73 15.0293C135.781 16.8848 136.807 19.3945 136.807 22.5586V30.1758H117.969V35.3027C117.969 37.1582 118.447 38.3301 119.404 38.8184C120.361 39.2871 121.787 39.5215 123.682 39.5215C125.205 39.5215 126.377 39.3945 127.197 39.1406C128.018 38.8672 128.584 38.3887 128.896 37.7051C129.229 37.002 129.395 36.0059 129.395 34.7168H136.777C136.777 37.3145 136.289 39.3652 135.312 40.8691C134.355 42.373 132.891 43.4473 130.918 44.0918C128.965 44.7363 126.504 45.0586 123.535 45.0586C120.977 45.0586 118.672 44.7461 116.621 44.1211C114.57 43.4766 112.949 42.3926 111.758 40.8691C110.586 39.3457 110 37.2363 110 34.541ZM129.277 25.3125V21.6211C129.277 20.4492 129.023 19.5996 128.516 19.0723C128.027 18.5254 127.354 18.1836 126.494 18.0469C125.654 17.8906 124.697 17.8125 123.623 17.8125C122.021 17.8125 120.674 18.0566 119.58 18.5449C118.506 19.0137 117.969 20.0879 117.969 21.7676V25.3125H129.277Z" fill="#6AC8F8"/>
<path d="M89.1602 34.2188V17.9883H85V12.9199H89.3945L90.127 2.8125H97.1289V12.9199H104.6V17.9883H97.1289V33.6328C97.1289 35.5859 97.5488 36.9434 98.3887 37.7051C99.248 38.4473 100.879 38.8184 103.281 38.8184H104.805L104.512 44.7363H102.344C99.1797 44.7363 96.6309 44.4238 94.6973 43.7988C92.7637 43.1738 91.3574 42.0996 90.4785 40.5762C89.5996 39.0332 89.1602 36.9141 89.1602 34.2188Z" fill="#6AC8F8"/>
<path d="M72.0586 12.9199H79.998V44.3848H72.0586V12.9199ZM72 7.76367V0H80.0273V7.76367H72Z" fill="#6AC8F8"/>
<path d="M45.7559 45.0586C43.7441 45.0586 42.0059 44.6582 40.541 43.8574C39.0957 43.0566 37.9727 41.9629 37.1719 40.5762C36.3906 39.1895 36 37.6172 36 35.8594V12.9199H43.9688V34.5703C43.9688 35.6641 44.2422 36.543 44.7891 37.207C45.3359 37.8516 46.0195 38.3203 46.8398 38.6133C47.6602 38.9062 48.4805 39.0527 49.3008 39.0527C50.2773 39.0527 51.2441 38.8867 52.2012 38.5547C53.1582 38.2227 53.9492 37.6953 54.5742 36.9727C55.2188 36.25 55.541 35.3027 55.541 34.1309V12.9199H63.5098V44.3848H56.0098L55.7754 40.9277C55.1504 42.2363 53.8711 43.252 51.9375 43.9746C50.0039 44.6973 47.9434 45.0586 45.7559 45.0586Z" fill="#6AC8F8"/>
<path d="M16.6406 45.1465C13.6914 45.1465 10.7227 44.7949 7.73438 44.0918C4.74609 43.3887 2.16797 42.4316 0 41.2207L2.98828 34.8633C4.64844 35.7422 6.63086 36.543 8.93555 37.2656C11.2598 37.9688 13.7598 38.3203 16.4355 38.3203C18.2129 38.3203 19.5508 38.0664 20.4492 37.5586C21.3672 37.0508 21.9824 36.3477 22.2949 35.4492C22.627 34.5312 22.793 33.4863 22.793 32.3145C22.793 31.5137 22.6562 30.7812 22.3828 30.1172C22.1094 29.4336 21.543 28.8086 20.6836 28.2422C19.8438 27.6562 18.5547 27.1094 16.8164 26.6016L9.43359 24.4336C7.08984 23.7305 5.26367 22.793 3.95508 21.6211C2.66602 20.4297 1.75781 19.043 1.23047 17.4609C0.722656 15.8789 0.46875 14.1699 0.46875 12.334C0.46875 9.63867 1.12305 7.41211 2.43164 5.6543C3.75977 3.89648 5.55664 2.58789 7.82227 1.72852C10.1074 0.849609 12.666 0.410156 15.498 0.410156C18.3496 0.410156 20.9766 0.683594 23.3789 1.23047C25.7812 1.77734 27.9785 2.62695 29.9707 3.7793L27.5098 9.90234C25.9082 9.14062 24.1602 8.50586 22.2656 7.99805C20.3711 7.49023 18.3691 7.23633 16.2598 7.23633C14.0527 7.23633 12.2949 7.57812 10.9863 8.26172C9.67773 8.92578 9.02344 10.1855 9.02344 12.041C9.02344 13.5254 9.4043 14.668 10.166 15.4688C10.9473 16.2695 12.4316 17.002 14.6191 17.666L21.9727 19.8633C24.8828 20.7422 27.0703 22.1387 28.5352 24.0527C30 25.9668 30.7324 28.623 30.7324 32.0215C30.7324 34.4629 30.2441 36.6797 29.2676 38.6719C28.291 40.6445 26.7676 42.2168 24.6973 43.3887C22.627 44.5605 19.9414 45.1465 16.6406 45.1465Z" fill="#6AC8F8"/>
<path d="M177.5 51V60.5H217V67.5H174C172.067 67.5 170.5 65.933 170.5 64V51H177.5Z" fill="#FF5959"/>
<path d="M18.5 51V60.5H161V67.5H15C13.067 67.5 11.5 65.933 11.5 64V51H18.5Z" fill="#6AC8F8"/>
</g>
<defs>
<clipPath id="clip0_378_4292">
<rect width="217" height="67.5" fill="white"/>
</clipPath>
</defs>
</svg>
